<svg xmlns="http://www.w3.org/2000/svg" x="0px" y="0px"
width="50" height="50"
viewBox="0 0 192 192"
style=" fill:#000000;"><g fill="none" fill-rule="nonzero" stroke="none" stroke-width="1" stroke-linecap="butt" stroke-linejoin="miter" stroke-miterlimit="10" stroke-dasharray="" stroke-dashoffset="0" font-family="none" font-weight="none" font-size="none" text-anchor="none" style="mix-blend-mode: normal"><path d="M0,192v-192h192v192z" fill="#000000"></path><g fill="#ffffff"><path d="M65.88,42.015c-1.06752,0 -2.09424,0.40893 -2.82,1.12125c-2.82624,2.76288 -3.74448,6.29178 -2.46,9.4425c0.93888,2.30016 2.87631,3.95922 5.19375,4.5525v8.11125c-9.66866,1.01119 -17.15625,9.23215 -17.15625,19.0125c0,9.80317 7.52406,18.03654 17.22375,19.01625c0.62921,9.088 6.14387,16.84569 13.93125,20.67c-0.34715,0.72818 -0.55875,1.53377 -0.55875,2.3925v0.31875c0,3.08736 2.51514,5.6025 5.6025,5.6025h3.4575c-1.32475,8.23432 -4.10165,13.98793 -6.1425,17.27625h-10.47375c-3.12384,0 -5.8134,2.09859 -6.255,4.87875c-0.25728,1.61856 0.21288,3.26673 1.29,4.52625c1.14624,1.34208 2.83596,2.115 4.635,2.115h47.62875c3.12576,0 5.81157,-2.09676 6.25125,-4.875c0.2592,-1.61664 -0.21297,-3.26664 -1.28625,-4.53c-1.14816,-1.34208 -2.83971,-2.115 -4.63875,-2.115h-10.80375c-2.04213,-3.28771 -4.81065,-9.04764 -6.135,-17.27625h3.91125c3.08736,0 5.59875,-2.51514 5.59875,-5.6025v-0.31875c0,-0.58385 -0.1146,-1.13533 -0.28125,-1.665c8.68255,-3.50937 14.95021,-11.75323 15.5775,-21.52125c9.19766,-1.43743 16.1925,-9.43845 16.1925,-18.8925c0,-9.43248 -6.96358,-17.42469 -16.12875,-18.88875v-7.99125h0.23625c1.0656,0 2.09424,-0.40893 2.82,-1.12125c2.82432,-2.76672 3.74448,-6.29178 2.46,-9.4425c-1.18848,-2.91456 -3.97839,-4.79625 -7.11375,-4.79625zM65.88,45.855h59.75625c1.54368,0 2.97315,0.96942 3.55875,2.4075c0.68352,1.67808 0.10476,3.58866 -1.725,5.2725h-2.1525c-1.06176,0 -1.92,0.85824 -1.92,1.92v46.08c0,9.26929 -6.01209,17.13955 -14.33625,19.9725c-0.82463,-0.47853 -1.76647,-0.7725 -2.78625,-0.7725h-21.43875c-0.68484,0 -1.33532,0.13759 -1.9425,0.36375c-7.75786,-3.126 -13.26,-10.70123 -13.26,-19.56375v-46.08h39.36c0.52992,0 0.96,-0.43008 0.96,-0.96c0,-0.52992 -0.43008,-0.96 -0.96,-0.96h-41.28c-1.5648,0 -2.96355,-0.94071 -3.55875,-2.40375c-0.68352,-1.67616 -0.10668,-3.59241 1.725,-5.27625zM114.75375,53.535c-0.52992,0 -0.96,0.43008 -0.96,0.96c0,0.52992 0.43008,0.96 0.96,0.96h1.92c0.52992,0 0.96,-0.43008 0.96,-0.96c0,-0.52992 -0.43008,-0.96 -0.96,-0.96zM65.79375,69.105v30.29625c-7.53444,-0.99016 -13.31625,-7.46395 -13.31625,-15.14625c0,-7.6823 5.78181,-14.15984 13.31625,-15.15zM127.23375,69.27375c7.0254,1.41875 12.28875,7.65228 12.28875,14.98125c0,7.32898 -5.26335,13.55876 -12.28875,14.9775zM84.83625,124.575h21.43875c0.97152,0 1.75875,0.78723 1.75875,1.75875v0.31875c0,0.97152 -0.78723,1.7625 -1.75875,1.7625h-21.43875c-0.97152,0 -1.7625,-0.79098 -1.7625,-1.7625v-0.31875c0,-0.97152 0.79098,-1.75875 1.7625,-1.75875zM92.11875,132.255h6.40875c1.51654,10.01943 5.03796,16.82117 7.32375,20.26125c0.35712,0.53376 0.95805,0.855 1.60125,0.855h11.85c0.67584,0 1.30086,0.27924 1.7175,0.765c0.24768,0.28992 0.51993,0.77385 0.41625,1.43625c-0.14208,0.90432 -1.24656,1.63875 -2.46,1.63875h-47.62875c-0.67584,0 -1.29711,-0.27924 -1.71375,-0.765c-0.24768,-0.28992 -0.52176,-0.77769 -0.42,-1.43625c0.144,-0.90432 1.24656,-1.63875 2.46,-1.63875h11.52375c0.16896,0 0.33572,-0.025 0.495,-0.0675c0.10716,0.04136 0.21956,0.07125 0.34125,0.07125h15.36c0.52992,0 0.96,-0.43008 0.96,-0.96c0,-0.52992 -0.43008,-0.96 -0.96,-0.96h-13.93125c2.26001,-3.6745 5.27627,-10.08833 6.65625,-19.2z"></path></g><path d="M96,192c-53.01934,0 -96,-42.98066 -96,-96v0c0,-53.01934 42.98066,-96 96,-96v0c53.01934,0 96,42.98066 96,96v0c0,53.01934 -42.98066,96 -96,96z" fill="none"></path><path d="M96,188.16c-50.89856,0 -92.16,-41.26144 -92.16,-92.16v0c0,-50.89856 41.26144,-92.16 92.16,-92.16v0c50.89856,0 92.16,41.26144 92.16,92.16v0c0,50.89856 -41.26144,92.16 -92.16,92.16z" fill="none"></path></g></svg>